<?xml version="1.0" encoding="UTF-8" standalone="no"?>
<svg
   xmlns:dc="http://purl.org/dc/elements/1.1/"
   xmlns:cc="http://creativecommons.org/ns#"
   xmlns:rdf="http://www.w3.org/1999/02/22-rdf-syntax-ns#"
   xmlns:svg="http://www.w3.org/2000/svg"
   xmlns="http://www.w3.org/2000/svg"
   xmlns:sodipodi="http://sodipodi.sourceforge.net/DTD/sodipodi-0.dtd"
   xmlns:inkscape="http://www.inkscape.org/namespaces/inkscape"
   height="50"
   width="50"
   xml:space="preserve"
   viewBox="0 0 50 49.999997"
   y="0px"
   x="0px"
   id="Capa_1"
   version="1.1"
   inkscape:version="0.91 r13725"
   sodipodi:docname="plomberie.svg"><sodipodi:namedview
     pagecolor="#ffffff"
     bordercolor="#FFFFFF"
     borderopacity="1"
     objecttolerance="10"
     gridtolerance="10"
     guidetolerance="10"
     inkscape:pageopacity="0"
     inkscape:pageshadow="2"
     inkscape:window-width="1366"
     inkscape:window-height="719"
     id="namedview7059"
     showgrid="false"
     inkscape:zoom="13.350176"
     inkscape:cx="8.3638233"
     inkscape:cy="25.792867"
     inkscape:window-x="0"
     inkscape:window-y="25"
     inkscape:window-maximized="1"
     inkscape:current-layer="Capa_1" /><metadata
     id="metadata39"><rdf:RDF><cc:Work
         rdf:about=""><dc:format>image/svg+xml</dc:format><dc:type
           rdf:resource="http://purl.org/dc/dcmitype/StillImage" /><dc:title /></cc:Work></rdf:RDF></metadata><defs
     id="defs37" /><path
     id="path3"
     d="m 14.25487,39.999688 c -1.577122,0 -2.860379,-1.2831 -2.860379,-2.86037 0,-0.54743 0.155603,-1.07938 0.450093,-1.53948 4.68e-4,-0.002 0.0011,-0.002 0.0017,-0.003 l 2.139699,-3.61262 c 0.05624,-0.095 0.158415,-0.15326 0.268869,-0.15326 0.110453,0 0.212626,0.0583 0.268868,0.1531 l 2.13923,3.61137 c 0.0016,0.003 0.003,0.005 0.0044,0.008 0.293084,0.45932 0.447906,0.99002 0.447906,1.5362 0,1.57727 -1.283101,2.86037 -2.860379,2.86037 z m -1.863019,-4.09739 c -0.0042,0.008 -0.0089,0.0161 -0.0139,0.0238 -0.234499,0.36182 -0.358388,0.78145 -0.358388,1.21342 0,1.23264 1.002828,2.23547 2.235467,2.23547 1.23264,0 2.235467,-1.00283 2.235467,-2.23547 0,-0.43228 -0.124045,-0.85222 -0.359012,-1.2142 -0.0061,-0.009 -0.01156,-0.0189 -0.01656,-0.0287 l -1.859894,-3.13971 -1.863176,3.14549 z m 4.990704,-6.96324 -6.935743,0 c -0.172476,0 -0.312457,-0.13998 -0.312457,-0.31245 0,-0.17248 0.139981,-0.31246 0.312457,-0.31246 l 0.402755,0 0,-4.70293 c 0,-3.76885 3.066132,-6.83498 6.834821,-6.83498 l 3.983658,0 0,-1.01939 c 0,-0.17247 0.13998,-0.31245 0.312456,-0.31245 l 2.61432,0 0,-2.73321 -5.649518,0 c -0.172475,0 -0.312456,-0.13998 -0.312456,-0.31246 l 0,-0.66412 c 0,-0.95659 0.778328,-1.7349199 1.735068,-1.7349199 l 10.667407,0 c 0.956742,0 1.734913,0.7783299 1.734913,1.7349199 l 0,0.66412 c 0,0.17248 -0.13998,0.31246 -0.312457,0.31246 l -5.649362,0 0,2.73321 2.614164,0 c 0.172476,0 0.312456,0.13998 0.312456,0.31245 l 0,1.01939 9.818152,0 c 0.172475,0 0.312456,0.13998 0.312456,0.31246 0,0.17247 -0.139981,0.31245 -0.312456,0.31245 l -9.818152,0 0,4.79745 9.818152,0 c 0.172475,0 0.312456,0.13998 0.312456,0.31246 0,0.17248 -0.139981,0.31246 -0.312456,0.31246 l -9.818152,0 0,1.25716 c 0,0.17248 -0.13998,0.31246 -0.312456,0.31246 l -7.442079,0 c -0.172476,0 -0.312455,-0.13998 -0.312455,-0.31246 l 0,-1.25716 -2.499961,0 c -1.165618,0 -2.114078,0.9483 -2.114078,2.11407 l 0,3.37656 0.328547,0 c 0.172476,0 0.312456,0.13998 0.312456,0.31246 0,0.17247 -0.139824,0.31245 -0.312456,0.31245 z m -5.908075,-0.62491 4.954616,0 0,-3.3764 c 0,-1.51026 1.228733,-2.73899 2.73899,-2.73899 l 2.49996,0 0,-4.79761 -3.983658,0 c -3.42405,0 -6.209908,2.78586 -6.209908,6.21007 l 0,4.70293 z m 10.818478,-4.54577 6.817167,0 0,-7.69891 -6.817167,0 0,7.69891 z m 2.926776,-8.32383 0.963771,0 0,-2.73336 -0.96377,0 0,2.73336 z m -5.961974,-3.35827 12.887563,0 0,-0.35167 c 0,-0.6121 -0.498055,-1.11 -1.11,-1.11 l -10.667407,0 c -0.612101,0 -1.109999,0.49805 -1.109999,1.11 l 0,0.35167 z"
     style="stroke-width:1;stroke-miterlimit:4;stroke-dasharray:none;fill:#FFFFFF;fill-opacity:1;stroke:#FFFFFF;stroke-opacity:1" /><g
     transform="translate(0,-142.027)"
     id="g5" /><g
     transform="translate(0,-142.027)"
     id="g7" /><g
     transform="translate(0,-142.027)"
     id="g9" /><g
     transform="translate(0,-142.027)"
     id="g11" /><g
     transform="translate(0,-142.027)"
     id="g13" /><g
     transform="translate(0,-142.027)"
     id="g15" /><g
     transform="translate(0,-142.027)"
     id="g17" /><g
     transform="translate(0,-142.027)"
     id="g19" /><g
     transform="translate(0,-142.027)"
     id="g21" /><g
     transform="translate(0,-142.027)"
     id="g23" /><g
     transform="translate(0,-142.027)"
     id="g25" /><g
     transform="translate(0,-142.027)"
     id="g27" /><g
     transform="translate(0,-142.027)"
     id="g29" /><g
     transform="translate(0,-142.027)"
     id="g31" /><g
     transform="translate(0,-142.027)"
     id="g33" /></svg>
